<svg width="200" height="200" viewBox="0 0 201 199" fill="none" xmlns="http://www.w3.org/2000/svg">
<path d="M110.28 149.678C110.428 149.649 110.581 149.649 110.729 149.678C110.954 149.678 111.156 149.833 111.38 149.9C111.268 150.099 111.223 150.409 111.043 150.519C110.512 150.854 109.957 151.149 109.382 151.405C107.271 152.445 105.137 153.441 103.027 154.503C99.8354 156.4 96.9387 158.74 94.4259 161.452C91.6026 164.383 88.4965 167.037 85.1515 169.375C82.7475 170.983 80.0702 172.152 77.247 172.828C76.4161 172.983 75.5628 173.027 74.6421 173.115C74.6066 173.395 74.6066 173.677 74.6421 173.956C74.8348 174.478 74.8217 175.052 74.6054 175.564C74.3892 176.076 73.9855 176.49 73.4743 176.723C72.0353 177.637 70.3301 178.057 68.6238 177.918C61.887 177.918 54.993 177.918 48.1663 177.918C40.8503 177.961 33.5528 178.65 26.3614 179.976C26.123 180.008 25.8813 180.008 25.6428 179.976C25.6681 179.718 25.7285 179.465 25.8225 179.224C26.0592 178.869 26.2409 178.481 26.3614 178.073L24.3628 178.759C23.753 178.991 23.1308 179.191 22.499 179.356C22.207 179.356 21.713 179.356 21.5783 179.135C21.4435 178.914 21.5783 178.493 21.5783 178.228C22.2365 177.043 23.2695 176.103 24.52 175.55C27.2076 174.09 30.1756 173.2 33.233 172.938C33.4351 172.896 33.6312 172.829 33.8169 172.739C33.4126 172.407 33.1432 172.119 32.8288 171.898C28.5498 168.696 25.6612 164.014 24.7446 158.796C23.6104 153.231 23.6104 147.498 24.7446 141.932C25.6349 138.474 27.0025 135.153 28.8091 132.062C30.9901 128.059 32.6859 123.818 33.8618 119.425C34.0829 118.544 34.2405 117.649 34.3333 116.747C34.4905 115.597 34.3293 114.426 33.8668 113.358C33.4043 112.291 32.6577 111.366 31.706 110.683C31.2793 111.059 30.8526 111.48 30.4035 111.834C29.9292 112.329 29.2849 112.633 28.596 112.686C27.907 112.739 27.2226 112.538 26.6758 112.121C25.2308 111.076 23.858 109.938 22.5663 108.713C20.68 106.965 18.906 105.106 16.9972 103.379C16.1895 102.683 15.2813 102.109 14.3025 101.675C11.8548 100.569 10.2379 101.498 9.92356 104.132C9.81128 105.084 9.78882 106.057 9.74391 107.009C9.79041 107.287 9.79041 107.572 9.74391 107.85C9.54181 108.315 9.3397 108.979 8.9804 109.089C8.6211 109.2 8.0597 108.78 7.65549 108.514C7.23129 108.175 6.83345 107.805 6.46532 107.407C6.36157 107.554 6.27138 107.71 6.19585 107.872C6.0162 108.226 5.859 108.602 5.67935 108.957C5.31733 108.815 4.97116 108.637 4.64637 108.425C3.50369 107.522 2.6382 106.323 2.1465 104.964C1.6548 103.604 1.55624 102.136 1.86182 100.724C2.04147 99.5729 2.33339 98.5106 2.58041 97.2712C2.85037 95.7255 3.6037 94.3015 4.73508 93.1984C5.86646 92.0953 7.31934 91.3681 8.89058 91.1187C10.7993 90.6761 12.6632 90.1228 14.5495 89.6138C14.6896 89.6055 14.826 89.5665 14.9488 89.4997C15.0717 89.4329 15.1778 89.3399 15.2596 89.2275C15.3413 89.1152 15.3966 88.9862 15.4214 88.8501C15.4462 88.714 15.4398 88.5742 15.4028 88.4408C15.1334 85.7629 14.9537 83.0629 14.7741 80.3629C14.5368 77.18 14.9101 73.9816 15.8744 70.9349C15.4028 71.3554 14.9762 71.798 14.4597 72.1964C14.1618 72.3643 13.8453 72.4979 13.5165 72.5948C13.5165 72.2407 13.292 71.8644 13.4043 71.5767C13.9842 69.4268 14.735 67.3251 15.6499 65.2914C16.9972 62.7463 18.7263 60.3783 20.2983 57.9659C21.4884 56.129 21.3088 55.7528 19.1306 55.3102C17.0986 55.1079 15.0813 54.7827 13.0899 54.3364C10.3032 53.6741 7.71777 52.3642 5.5496 50.5162C3.38144 48.6681 1.69348 46.3356 0.62673 43.7133C0.0566914 42.4714 -0.130152 41.0917 0.0894548 39.7458C0.309062 38.4 0.925421 37.1476 1.86182 36.1444C4.10743 33.71 6.35304 31.3419 8.59865 28.996C10.8443 26.6501 13.2246 24.3263 15.56 22.0025C18.3465 19.3311 21.6545 17.2455 25.2835 15.8721C27.267 15.2368 29.3556 14.9813 31.4365 15.1196C33.3677 15.1196 35.2765 14.9868 37.2077 14.8762C37.3502 14.869 37.4885 14.8268 37.6101 14.7533C37.7317 14.6799 37.8327 14.5775 37.9039 14.4557C39.0942 11.344 41.3822 8.75911 44.3488 7.17448C47.5824 5.4261 50.8835 3.83264 54.1621 2.15066C54.8129 1.77103 55.4425 1.35732 56.0484 0.911303C56.9017 0.269494 57.1263 0.358019 57.2835 1.37606V1.70803C58.3165 1.70803 58.6084 2.04 58.4063 2.92526C58.0991 5.5761 58.152 8.25548 58.5635 10.8925C58.7319 13.0213 58.7319 15.1597 58.5635 17.2885C58.268 19.5004 57.2142 21.5463 55.5768 23.0869C54.8358 23.8615 54.0947 24.614 53.3312 25.4328C53.1022 25.7547 53.0059 26.1502 53.0617 26.5394C54.0273 29.9698 55.1726 33.3559 56.0259 36.8305C56.9532 40.3148 58.2399 43.6964 59.8659 46.9224C64.7614 57.0586 69.7466 67.1283 75.5852 76.7776C79.5824 83.417 83.8266 90.0564 87.8912 96.563C91.5854 102.318 94.6921 108.419 97.1655 114.777C98.6738 118.737 99.4938 122.92 99.5908 127.149C99.5908 127.945 99.5908 128.742 99.748 129.782C100.107 129.317 100.332 129.052 100.511 128.786C104.14 123.347 108.602 118.494 113.738 114.401C117.983 111.085 121.941 107.428 125.572 103.468C129.673 99.0274 132.475 93.5739 133.679 87.6883C134.507 82.0248 134.785 76.2964 134.51 70.5808C134.535 66.3564 133.719 62.1682 132.107 58.2536C130.879 55.2731 129.027 52.5811 126.673 50.3527C124.938 48.7785 122.859 47.6185 120.597 46.9623C118.334 46.3061 115.949 46.1713 113.626 46.5683C112.108 46.6574 110.627 47.0624 109.28 47.7567C107.933 48.4509 106.751 49.4187 105.811 50.5962C104.648 52.143 103.967 53.99 103.852 55.9118C103.736 57.8336 104.191 59.747 105.16 61.4184C106.117 63.1208 107.182 64.7618 108.349 66.3316C108.524 66.6398 108.681 66.9576 108.82 67.2832C108.461 67.416 108.057 67.7037 107.742 67.6373C106.399 67.3216 105.09 66.8769 103.835 66.3095C101.859 65.2914 99.995 64.0963 98.0862 62.9234L97.0757 62.3037C97.2778 63.2553 97.4799 63.9857 97.5922 64.716C97.6355 65.0392 97.6355 65.3666 97.5922 65.6898C97.2783 65.66 96.9692 65.5932 96.6715 65.4906C91.7589 62.8279 87.5748 59.0308 84.4778 54.4249C82.3027 50.9761 80.781 47.1667 79.9866 43.1822C78.2227 36.0004 78.8526 28.4497 81.7831 21.6484C83.7204 17.2352 86.8221 13.4142 90.7655 10.5827C91.5964 9.96303 92.3824 9.25482 93.4154 8.36957C91.7397 8.13258 90.0318 8.25334 88.4076 8.72367C87.9136 8.85646 87.4645 9.07777 86.9705 9.18843C86.672 9.22169 86.3707 9.22169 86.0722 9.18843C86.1471 8.88789 86.2603 8.59788 86.409 8.32531C87.8397 6.69702 89.6509 5.43617 91.6862 4.6515C95.645 3.09644 99.7752 2.00454 103.992 1.39819C110.61 0.259065 117.332 -0.186046 124.045 0.0703115C127.264 0.0715624 130.469 0.465549 133.589 1.24327C137.834 2.41624 142.078 3.63346 146.255 5.02774C151.707 7.04359 156.508 10.4683 160.155 14.9426C165.6 20.9302 169.837 27.8855 172.641 35.4362C174.669 40.9902 176.135 46.7279 177.019 52.5659C177.693 56.9922 178.389 61.4184 178.726 65.8447C180.089 80.1217 176.339 94.4186 168.127 106.257C163.519 113.079 157.69 119.018 150.925 123.785C147.984 125.799 144.862 127.547 141.943 129.472C137.834 132.062 133.769 134.74 129.615 137.285C126.246 139.343 122.765 141.246 119.352 143.238L117.893 144.212V144.455C119.15 144.3 120.385 144.123 121.643 144.013C121.935 144.013 122.429 144.013 122.496 144.234C122.721 144.787 122.182 144.765 121.845 144.854C118.034 145.732 114.363 147.117 110.931 148.97L110.168 149.457L110.28 149.678Z" fill="#E73E10"/>
</svg>
