<svg width="58" height="50" viewBox="0 0 58 50" fill="none" xmlns="http://www.w3.org/2000/svg">
<path d="M6.64583 37.5135H6.0691L5.78027 38.0127L1 46.2748V3C1 1.89543 1.89543 1 3 1H55C56.1035 1 57 1.89688 57 3.00256V3.0743V3.14594V3.21748V3.28893V3.36029V3.43155V3.50271V3.57378V3.64475V3.71563V3.78642V3.85712V3.92772V3.99823V4.06865V4.13897V4.20921V4.27935V4.34941V4.41937V4.48925V4.55903V4.62873V4.69834V4.76786V4.83729V4.90663V4.97589V5.04506V5.11415V5.18315V5.25206V5.32089V5.38964V5.45829V5.52687V5.59536V5.66377V5.7321V5.80034V5.86851V5.93659V6.00459V6.0725V6.14034V6.2081V6.27578V6.34338V6.4109V6.47834V6.5457V6.61299V6.68019V6.74732V6.81438V6.88136V6.94826V7.01508V7.08183V7.14851V7.21511V7.28164V7.34809V7.41447V7.48078V7.54702V7.61318V7.67927V7.74529V7.81124V7.87712V7.94293V8.00867V8.07434V8.13993V8.20547V8.27093V8.33632V8.40165V8.46691V8.5321V8.59723V8.66229V8.72728V8.79221V8.85708V8.92188V8.98661V9.05129V9.1159V9.18044V9.24492V9.30935V9.3737V9.438V9.50224V9.56641V9.63053V9.69458V9.75858V9.82251V9.88639V9.95021V10.014V10.0777V10.1413V10.2049V10.2684V10.3319V10.3953V10.4587V10.522V10.5853V10.6485V10.7116V10.7747V10.8377V10.9007V10.9637V11.0266V11.0894V11.1522V11.2149V11.2776V11.3402V11.4028V11.4653V11.5278V11.5902V11.6526V11.7149V11.7772V11.8395V11.9017V11.9638V12.0259V12.088V12.15V12.212V12.2739V12.3358V12.3976V12.4594V12.5211V12.5828V12.6445V12.7061V12.7677V12.8292V12.8907V12.9522V13.0136V13.075V13.1363V13.1976V13.2589V13.3201V13.3813V13.4425V13.5036V13.5647V13.6257V13.6867V13.7477V13.8086V13.8695V13.9304V13.9912V14.052V14.1128V14.1735V14.2342V14.2949V14.3555V14.4161V14.4767V14.5372V14.5978V14.6582V14.7187V14.7791V14.8395V14.8999V14.9602V15.0206V15.0809V15.1411V15.2013V15.2616V15.3217V15.3819V15.442V15.5022V15.5622V15.6223V15.6823V15.7424V15.8024V15.8623V15.9223V15.9822V16.0421V16.102V16.1619V16.2217V16.2816V16.3414V16.4012V16.4609V16.5207V16.5804V16.6402V16.6999V16.7595V16.8192V16.8789V16.9385V16.9981V17.0578V17.1174V17.1769V17.2365V17.2961V17.3556V17.4152V17.4747V17.5342V17.5937V17.6532V17.7127V17.7721V17.8316V17.891V17.9505V18.0099V18.0693V18.1288V18.1882V18.2476V18.307V18.3664V18.4257V18.4851V18.5445V18.6039V18.6632V18.7226V18.782V18.8413V18.9007V18.96V19.0194V19.0787V19.1381V19.1974V19.2568V19.3161V19.3755V19.4348V19.4941V19.5535V19.6128V19.6722V19.7316V19.7909V19.8503V19.9096V19.969V20.0284V20.0878V20.1472V20.2065V20.2659V20.3253V20.3848V20.4442V20.5036V20.563V20.6225V20.6819V20.7414V20.8009V20.8603V20.9198V20.9793V21.0388V21.0984V21.1579V21.2174V21.277V21.3366V21.3962V21.4558V21.5154V21.575V21.6346V21.6943V21.754V21.8137V21.8734V21.9331V21.9928V22.0526V22.1124V22.1721V22.232V22.2918V22.3516V22.4115V22.4714V22.5313V22.5912V22.6512V22.7112V22.7712V22.8312V22.8912V22.9513V23.0114V23.0715V23.1316V23.1918V23.252V23.3122V23.3724V23.4327V23.493V23.5533V23.6136V23.674V23.7344V23.7948V23.8553V23.9158V23.9763V24.0368V24.0974V24.158V24.2186V24.2793V24.34V24.4007V24.4615V24.5223V24.5831V24.644V24.7049V24.7658V24.8268V24.8878V24.9489V25.0099V25.0711V25.1322V25.1934V25.2546V25.3159V25.3772V25.4385V25.4999V25.5613V25.6228V25.6843V25.7458V25.8074V25.869V25.9307V25.9924V26.0541V26.1159V26.1778V26.2396V26.3016V26.3635V26.4255V26.4876V26.5497V26.6118V26.674V26.7363V26.7986V26.8609V26.9233V26.9857V27.0482V27.1107V27.1733V27.2359V27.2986V27.3614V27.4241V27.487V27.5498V27.6128V27.6758V27.7388V27.8019V27.865V27.9282V27.9915V28.0548V28.1182V28.1816V28.2451V28.3086V28.3722V28.4358V28.4995V28.5633V28.6271V28.691V28.7549V28.8189V28.883V28.9471V29.0113V29.0755V29.1398V29.2042V29.2686V29.3331V29.3976V29.4622V29.5269V29.5916V29.6564V29.7213V29.7862V29.8512V29.9163V29.9814V30.0466V30.1119V30.1772V30.2426V30.3081V30.3736V30.4392V30.5049V30.5706V30.6364V30.7023V30.7682V30.8342V30.9003V30.9665V31.0327V31.099V31.1654V31.2319V31.2984V31.365V31.4317V31.4984V31.5653V31.6322V31.6991V31.7662V31.8333V31.9005V31.9678V32.0352V32.1026V32.1701V32.2377V32.3054V32.3732V32.441V32.5089V32.5769V32.645V32.7132V32.7814V32.8497V32.9182V32.9866V33.0552V33.1239V33.1926V33.2615V33.3304V33.3994V33.4685V33.5376V33.6069V33.6762V33.7457V33.8152V33.8848V33.9545V34.0243V34.0941V34.1641V34.2342V34.3043V34.3745V34.4449V34.5153V34.5858V34.6564V34.7271V34.7979V34.8688V34.9397V35.0108V35.082V35.1532V35.2246V35.296V35.3676V35.4392V35.511C57 36.6166 56.1035 37.5135 55 37.5135H6.64583Z" fill="#FBFBFB" stroke="#BEBDC0" stroke-width="2"/>
<ellipse cx="29" cy="18.9189" rx="2.9" ry="2.7027" fill="#BEBDC0"/>
<ellipse cx="17.4" cy="18.9189" rx="2.9" ry="2.7027" fill="#BEBDC0"/>
<ellipse cx="40.6" cy="18.9189" rx="2.9" ry="2.7027" fill="#BEBDC0"/>
</svg>
