<svg width="58" height="50" viewBox="0 0 58 50" fill="none" xmlns="http://www.w3.org/2000/svg">
<path d="M57 25C57 38.1207 44.6084 49 29 49C13.3916 49 1 38.1207 1 25C1 11.8793 13.3916 1 29 1C44.6084 1 57 11.8793 57 25Z" fill="#FBFBFB" stroke="#6EADDE" stroke-width="2"/>
<path d="M9.66666 41.6666V41.6666C17.6468 26.4613 39.2506 26.0051 47.8655 40.86L48.3333 41.6666" stroke="#6EADDE" stroke-width="2"/>
<path d="M40.1333 16.8333C40.1333 22.13 35.0992 26.6667 28.5667 26.6667C22.0341 26.6667 17 22.13 17 16.8333C17 11.5367 22.0341 7 28.5667 7C35.0992 7 40.1333 11.5367 40.1333 16.8333Z" fill="#FBFBFB" stroke="#6EADDE" stroke-width="2"/>
</svg>
